RBDS001runT35_grf
version=1
nRows=21
nColumns=19
inDegrees=no
endheader
time	ground_force_r_vx	ground_force_r_vy	ground_force_r_vz	ground_force_r_px	ground_force_r_py	ground_force_r_pz	ground_torque_r_x	ground_torque_r_y	ground_torque_r_z	ground_force_l_vx	ground_force_l_vy	ground_force_l_vz	ground_force_l_px	ground_force_l_py	ground_force_l_pz	ground_torque_l_x	ground_torque_l_y	ground_torque_l_z
      0.00000000	      0.00000000	      0.00000000	      0.00000000	      0.00000000	      0.00000000	      0.00000000	      0.00000000	      0.00000000	      0.00000000	   -113.69568438	   1506.13357119	      1.93793348	      2.42010633	      0.00000000	      1.06393552	     -0.70637456	      8.95679997	      0.01002052
      0.00333333	      0.00000000	      0.00000000	      0.00000000	      0.00000000	      0.00000000	      0.00000000	      0.00000000	      0.00000000	      0.00000000	   -103.79633767	   1508.79930745	      3.51094646	      2.39704526	      0.00000000	      1.06601606	     -0.63871998	      8.70126642	      0.02101592
      0.00666667	      0.00000000	      0.00000000	      0.00000000	      0.00000000	      0.00000000	      0.00000000	      0.00000000	      0.00000000	      0.00000000	    -93.21627874	   1510.77584980	      5.04487871	      2.41530889	      0.00000000	      1.06311874	     -0.56759723	      8.44369367	      0.03137947
      0.01000000	      0.00000000	      0.00000000	      0.00000000	      0.00000000	      0.00000000	      0.00000000	      0.00000000	      0.00000000	      0.00000000	    -81.93050493	   1511.68015216	      6.49840572	      2.38603000	      0.00000000	      1.06251346	     -0.49364775	      8.20561897	      0.04082165
      0.01333333	      0.00000000	      0.00000000	      0.00000000	      0.00000000	      0.00000000	      0.00000000	      0.00000000	      0.00000000	      0.00000000	    -69.91962832	   1511.14493638	      7.82098157	      2.36440707	      0.00000000	      1.06245270	     -0.41707232	      8.00130303	      0.04902024
      0.01666667	      0.00000000	      0.00000000	      0.00000000	      0.00000000	      0.00000000	      0.00000000	      0.00000000	      0.00000000	      0.00000000	    -57.17453809	   1508.83834288	      8.96186407	      2.39000641	      0.00000000	      1.06286818	     -0.33776752	      7.83930724	      0.05566945
      0.02000000	      0.00000000	      0.00000000	      0.00000000	      0.00000000	      0.00000000	      0.00000000	      0.00000000	      0.00000000	      0.00000000	    -43.70061600	   1504.47263528	      9.87082185	      2.35841259	      0.00000000	      1.06167167	     -0.25536205	      7.72315509	      0.06048441
      0.02333333	      0.00000000	      0.00000000	      0.00000000	      0.00000000	      0.00000000	      0.00000000	      0.00000000	      0.00000000	      0.00000000	    -29.52050377	   1497.80297063	     10.50012666	      2.33614835	      0.00000000	      1.05922318	     -0.16935372	      7.65247078	      0.06320130
      0.02666667	      0.00000000	      0.00000000	      0.00000000	      0.00000000	      0.00000000	      0.00000000	      0.00000000	      0.00000000	      0.00000000	    -14.67984986	   1488.61663066	     10.80544124	      2.35698725	      0.00000000	      1.06169553	     -0.07929511	      7.62268129	      0.06358247
      0.03000000	      0.00000000	      0.00000000	      0.00000000	      0.00000000	      0.00000000	      0.00000000	      0.00000000	      0.00000000	      0.00000000	      0.75384489	   1476.72485780	     10.74576983	      2.32454470	      0.00000000	      1.05896055	      0.01518473	      7.62482162	      0.06143805
      0.03333333	      0.00000000	      0.00000000	      0.00000000	      0.00000000	      0.00000000	      0.00000000	      0.00000000	      0.00000000	      0.00000000	     16.68995907	   1461.95950675	     10.28838525	      2.31980921	      0.00000000	      1.06065595	      0.11428676	      7.64939782	      0.05665844
      0.03666667	      0.00000000	      0.00000000	      0.00000000	      0.00000000	      0.00000000	      0.00000000	      0.00000000	      0.00000000	      0.00000000	     33.00809281	   1444.16946515	      9.41493531	      2.30906698	      0.00000000	      1.06200511	      0.21785113	      7.68792821	      0.04918779
      0.04000000	      0.00000000	      0.00000000	      0.00000000	      0.00000000	      0.00000000	      0.00000000	      0.00000000	      0.00000000	      0.00000000	     49.55905073	   1423.22034048	      8.12382458	      2.30398573	      0.00000000	      1.05756881	      0.32534182	      7.73118157	      0.03898555
      0.04333333	      0.00000000	      0.00000000	      0.00000000	      0.00000000	      0.00000000	      0.00000000	      0.00000000	      0.00000000	      0.00000000	     66.16885869	   1399.00126454	      6.42901666	      2.27435301	      0.00000000	      1.06298811	      0.43597420	      7.77093090	      0.02606632
      0.04666667	      0.00000000	      0.00000000	      0.00000000	      0.00000000	      0.00000000	      0.00000000	      0.00000000	      0.00000000	      0.00000000	     82.64052568	   1371.43246173	      4.35814722	      2.28032871	      0.00000000	      1.06025037	      0.54879211	      7.80212507	      0.01055351
      0.05000000	      0.00000000	      0.00000000	      0.00000000	      0.00000000	      0.00000000	      0.00000000	      0.00000000	      0.00000000	      0.00000000	     98.76064712	   1340.46999185	      1.95144900	      2.27489221	      0.00000000	      1.05965860	      0.66266315	      7.82154551	     -0.00731621
      0.05333333	      0.00000000	      0.00000000	      0.00000000	      0.00000000	      0.00000000	      0.00000000	      0.00000000	      0.00000000	      0.00000000	    114.31307117	   1306.11197068	     -0.74224115	      2.24460385	      0.00000000	      1.06202088	      0.77624948	      7.82582693	     -0.02721912
      0.05666667	      0.00000000	      0.00000000	      0.00000000	      0.00000000	      0.00000000	      0.00000000	      0.00000000	      0.00000000	      0.00000000	    129.08899956	   1268.40210282	     -3.67201187	      2.25450168	      0.00000000	      1.05882472	      0.88793729	      7.81020453	     -0.04877960
      0.06000000	      0.00000000	      0.00000000	      0.00000000	      0.00000000	      0.00000000	      0.00000000	      0.00000000	      0.00000000	      0.00000000	    142.88915964	   1227.43337579	     -6.78706895	      2.22196940	      0.00000000	      1.06195740	      0.99579668	      7.76824399	     -0.07159578
      0.06333333	      0.00000000	      0.00000000	      0.00000000	      0.00000000	      0.00000000	      0.00000000	      0.00000000	      0.00000000	      0.00000000	    155.52425269	   1183.35543842	    -10.03603630	      2.21695506	      0.00000000	      1.06325540	      1.09779228	      7.69397865	     -0.09526723
      0.06666667	      0.00000000	      0.00000000	      0.00000000	      0.00000000	      0.00000000	      0.00000000	      0.00000000	      0.00000000	      0.00000000	    166.81739058	   1136.37471325	    -13.36759002	      2.22260766	      0.00000000	      1.06165396	      1.19205380	      7.58436381	     -0.11940659
